<?xml version="1.0" encoding="UTF-8"?>
<svg version="1.1" viewBox="0 0 128 128" xml:space="preserve" xmlns="http://www.w3.org/2000/svg"><path d="m23.5-2.61e-6a9.98 10.5 0 0 0-9.98 10.5v63.2c0 1.25 0.0838 2.49 0.246 3.72 2.16 16.3 22.8 36.3 36.3 44.8 4.58 2.89 8.9 5 12.2 5.56 0.865 0.148 2.3 0.147 3.16 0 3.29-0.559 7.7-2.69 12.4-5.62 13.6-8.53 34.3-28.3 36.5-44.7 0.173-1.26 0.263-2.53 0.263-3.82v-63.2a9.98 10.5 0 0 0-9.98-10.5zm39.9 13.2h36.2a2.49 2.64 0 0 1 2.49 2.64v58c-2e-3 7.67-4.6 14.5-11 21.6-6.36 7.04-21.1 17.7-27.6 17.9v-39.5z" fill="#fff" stroke-width=".982"/></svg>
