<?xml version="1.0" encoding="UTF-8"?>
<svg width="128" height="128" version="1.1" viewBox="0 0 128 128" xml:space="preserve" xmlns="http://www.w3.org/2000/svg"><path fill="#000000" transform="matrix(1.3172 0 0 1.3172 -182.35 -21.075)" d="m154.52 16a8 8 0 0 0-7.9996 7.9996v48.001h9e-3c0 7.9915 4.7586 15.127 11.414 22.513 6.6559 7.3862 22.088 18.662 28.914 18.662 6.8267 0 22.427-11.248 29.14-18.639 6.7126-7.391 11.532-14.546 11.532-22.537h-9e-3v-46.001a10 10 0 0 0-9.9999-9.9999zm32.509 6.9409h30.335a3.2502 3.0179 0 0 1 3.2503 3.019v46.041c0 6.6454-3.996 12.595-9.5625 18.741-5.522 6.0972-18.292 15.346-24.023 15.494v-34.235z" stroke-width=".76609"/></svg>
